<svg width="504" height="332" viewBox="0 0 504 332" xmlns="http://www.w3.org/2000/svg" xmlns:xlink="http://www.w3.org/1999/xlink"><title>Group</title><defs><rect id="a" y="271" width="504" height="70" rx="8"/><mask id="b" x="0" y="0" width="504" height="70" fill="#fff"><use xlink:href="#a"/></mask></defs><g transform="translate(0 -9)" fill="none" fill-rule="evenodd"><use stroke="#979797" mask="url(#b)" stroke-width="2" fill="#D8D8D8" xlink:href="#a"/><text font-family="Helvetica" font-size="36" fill="#000"><tspan x="152" y="318">Elm Runtime</tspan></text><text font-family="Helvetica" font-size="36" fill="#000"><tspan x="206" y="35">Model</tspan></text><text font-family="Helvetica" font-size="36" fill="#000"><tspan x="0" y="152">update</tspan></text><text font-family="Helvetica" font-size="36" fill="#9B9B9B"><tspan x="353.0068" y="225">Html</tspan></text><text font-family="Helvetica" font-size="36" fill="#9B9B9B"><tspan x="84.4951" y="225">Msg</tspan></text><text font-family="Helvetica" font-size="36" fill="#000"><tspan x="418" y="152">view</tspan></text><path d="M58.8203 110.375s2.9414-56.328 44.8047-71.7227c41.8633-15.3945 88.6563-15.3945 88.6563-15.3945" stroke="#4A4A4A" stroke-width="4"/><path d="M181.4812 26.2578l10.8-3-10.8-3M321 23s43.1445-3.0078 91.8516 17.1992c48.707 20.207 42.7343 63.3985 42.7343 63.3985v8.8476" stroke="#4A4A4A" stroke-width="4"/><path d="M452.586 101.6453l3 10.8 3-10.8M453 252.3633V168M456 241.5633l-3 10.8-3-10.8M58 257.3633V173M61 183.8L58 173l-3 10.8" stroke="#4A4A4A" stroke-width="4"/></g></svg>
