<?xml version="1.0" encoding="UTF-8" standalone="no"?>
<!DOCTYPE svg PUBLIC "-//W3C//DTD SVG 1.1//EN"
 "http://www.w3.org/Graphics/SVG/1.1/DTD/svg11.dtd">
<!-- Generated by graphviz version 2.43.0 (0)
 -->
<!-- Title: %3 Pages: 1 -->
<svg width="258pt" height="285pt"
 viewBox="0.00 0.00 258.00 285.00" xmlns="http://www.w3.org/2000/svg" xmlns:xlink="http://www.w3.org/1999/xlink">
<g id="graph0" class="graph" transform="scale(1 1) rotate(0) translate(4 281)">
<title>%3</title>
<polygon fill="white" stroke="transparent" points="-4,4 -4,-281 254,-281 254,4 -4,4"/>
<!-- n1 -->
<g id="node1" class="node">
<title>n1</title>
<polygon fill="none" stroke="black" points="182,-277 66,-277 66,-239 182,-239 182,-277"/>
<text text-anchor="middle" x="124" y="-261.8" font-family="monospace" font-size="14.00">0xc00010e450</text>
<text text-anchor="middle" x="124" y="-246.8" font-family="monospace" font-size="14.00">PrintStmt</text>
</g>
<!-- n2 -->
<g id="node2" class="node">
<title>n2</title>
<polygon fill="none" stroke="black" points="190,-202 58,-202 58,-164 190,-164 190,-202"/>
<text text-anchor="middle" x="124" y="-186.8" font-family="monospace" font-size="14.00">0xc00010e420</text>
<text text-anchor="middle" x="124" y="-171.8" font-family="monospace" font-size="14.00">BinaryExpr (+)</text>
</g>
<!-- n1&#45;&gt;n2 -->
<g id="edge1" class="edge">
<title>n1&#45;&gt;n2</title>
<path fill="none" stroke="black" d="M124,-238.96C124,-230.88 124,-221.18 124,-212.18"/>
<polygon fill="black" stroke="black" points="127.5,-212.09 124,-202.09 120.5,-212.09 127.5,-212.09"/>
</g>
<!-- n3 -->
<g id="node3" class="node">
<title>n3</title>
<polygon fill="none" stroke="black" points="116,-113 0,-113 0,-75 116,-75 116,-113"/>
<text text-anchor="middle" x="58" y="-97.8" font-family="monospace" font-size="14.00">0xc00010c3e0</text>
<text text-anchor="middle" x="58" y="-82.8" font-family="monospace" font-size="14.00">FieldExpr</text>
</g>
<!-- n2&#45;&gt;n3 -->
<g id="edge2" class="edge">
<title>n2&#45;&gt;n3</title>
<path fill="none" stroke="black" d="M110.32,-163.97C100.94,-151.61 88.35,-135 77.86,-121.18"/>
<polygon fill="black" stroke="black" points="80.49,-118.85 71.66,-113 74.91,-123.09 80.49,-118.85"/>
<text text-anchor="middle" x="116" y="-134.8" font-family="monospace" font-size="14.00"> Left</text>
</g>
<!-- n5 -->
<g id="node5" class="node">
<title>n5</title>
<polygon fill="none" stroke="black" points="250,-113 134,-113 134,-75 250,-75 250,-113"/>
<text text-anchor="middle" x="192" y="-97.8" font-family="monospace" font-size="14.00">0xc00010c400</text>
<text text-anchor="middle" x="192" y="-82.8" font-family="monospace" font-size="14.00">FieldExpr</text>
</g>
<!-- n2&#45;&gt;n5 -->
<g id="edge3" class="edge">
<title>n2&#45;&gt;n5</title>
<path fill="none" stroke="black" d="M138.09,-163.97C147.75,-151.61 160.73,-135 171.53,-121.18"/>
<polygon fill="black" stroke="black" points="174.53,-123.04 177.93,-113 169.01,-118.73 174.53,-123.04"/>
<text text-anchor="middle" x="188" y="-134.8" font-family="monospace" font-size="14.00"> Right</text>
</g>
<!-- n4 -->
<g id="node4" class="node">
<title>n4</title>
<polygon fill="none" stroke="black" points="116,-38 0,-38 0,0 116,0 116,-38"/>
<text text-anchor="middle" x="58" y="-22.8" font-family="monospace" font-size="14.00">0xc00012a048</text>
<text text-anchor="middle" x="58" y="-7.8" font-family="monospace" font-size="14.00">NumExpr (1)</text>
</g>
<!-- n3&#45;&gt;n4 -->
<g id="edge4" class="edge">
<title>n3&#45;&gt;n4</title>
<path fill="none" stroke="black" d="M58,-74.96C58,-66.88 58,-57.18 58,-48.18"/>
<polygon fill="black" stroke="black" points="61.5,-48.09 58,-38.09 54.5,-48.09 61.5,-48.09"/>
</g>
<!-- n6 -->
<g id="node6" class="node">
<title>n6</title>
<polygon fill="none" stroke="black" points="250,-38 134,-38 134,0 250,0 250,-38"/>
<text text-anchor="middle" x="192" y="-22.8" font-family="monospace" font-size="14.00">0xc00012a050</text>
<text text-anchor="middle" x="192" y="-7.8" font-family="monospace" font-size="14.00">NumExpr (2)</text>
</g>
<!-- n5&#45;&gt;n6 -->
<g id="edge5" class="edge">
<title>n5&#45;&gt;n6</title>
<path fill="none" stroke="black" d="M192,-74.96C192,-66.88 192,-57.18 192,-48.18"/>
<polygon fill="black" stroke="black" points="195.5,-48.09 192,-38.09 188.5,-48.09 195.5,-48.09"/>
</g>
</g>
</svg>
