<?xml version="1.0" encoding="UTF-8" standalone="no"?>
<!DOCTYPE svg PUBLIC "-//W3C//DTD SVG 1.1//EN" "http://www.w3.org/Graphics/SVG/1.1/DTD/svg11.dtd">
<svg version="1.1" xmlns="http://www.w3.org/2000/svg" xmlns:xlink="http://www.w3.org/1999/xlink" preserveAspectRatio="xMidYMid meet" viewBox="0 0 640 640" width="640" height="640"><defs><path d="M120 89.67L120 101.15L120 125.74L120 151.15L120 183.11L120 220.82L120 265.08L120 309.34L120 338.85L120 358.52L120 392.95L120 411.8L120 424.1L120 437.21L120 447.87" id="a9KqYwRIk3"></path><path d="M120 91.31L138.03 91.31L150.33 91.31L170.82 91.31L183.93 91.31L199.51 91.31L210.16 91.31L221.64 91.31L233.11 91.31L246.23 91.31L258.52 91.31L270.82 91.31L283.93 89.67" id="fgIZ5lXNR"></path><path d="M118.36 443.77L138.03 443.77L156.07 443.77L175.74 443.77L194.59 443.77L212.62 443.77L223.28 443.77L236.39 443.77L250.33 443.77L265.08 443.77L279.02 443.77" id="b4opnUpF64"></path><path d="M283.93 96.47L283.93 112L283.93 124.25L283.93 134.88" id="b9E9NEtsD"></path><path d="M318.68 164.76C318.68 181.22 304.03 194.59 285.98 194.59C267.94 194.59 253.29 181.22 253.29 164.76C253.29 148.29 267.94 134.93 285.98 134.93C304.03 134.93 318.68 148.29 318.68 164.76Z" id="b1Ks3xmuVV"></path></defs><g><g><g><g><use xlink:href="#a9KqYwRIk3" opacity="1" fill-opacity="0" stroke="#000000" stroke-width="5" stroke-opacity="1"></use></g></g><g><g><use xlink:href="#fgIZ5lXNR" opacity="1" fill-opacity="0" stroke="#000000" stroke-width="5" stroke-opacity="1"></use></g></g><g><g><use xlink:href="#b4opnUpF64" opacity="1" fill-opacity="0" stroke="#000000" stroke-width="3" stroke-opacity="1"></use></g></g><g><g><use xlink:href="#b9E9NEtsD" opacity="1" fill-opacity="0" stroke="#000000" stroke-width="3" stroke-opacity="1"></use></g></g><g><use xlink:href="#b1Ks3xmuVV" opacity="1" fill="#dcde08" fill-opacity="1"></use><g><use xlink:href="#b1Ks3xmuVV" opacity="1" fill-opacity="0" stroke="#000000" stroke-width="3" stroke-opacity="1"></use></g></g></g></g></svg>